HIERARCHY
ROOT Hips
{
	OFFSET -0.179506 -22.333345 2.821913
	CHANNELS 6 Xposition Yposition Zposition Zrotation Yrotation Xrotation 
	JOINT LeftUpLeg
	{
		OFFSET 6.951974 -9.140623 -0.681533
		CHANNELS 3 Zrotation Yrotation Xrotation
		JOINT LeftLeg
		{
			OFFSET 3.427654 -37.519855 -0.449580
			CHANNELS 3 Zrotation Yrotation Xrotation
			JOINT LeftFoot
			{
				OFFSET -1.359570 -39.796059 -4.369333
				CHANNELS 3 Zrotation Yrotation Xrotation
				JOINT LeftToe
				{
					OFFSET 2.635814 -5.579078 11.928840
					CHANNELS 3 Zrotation Yrotation Xrotation
					End Site
					{
						OFFSET 0.000000 0.000000 0.000000
					}
				}
			}
		}
	}
	JOINT RightUpLeg
	{
		OFFSET -6.767048 -9.052170 -0.431982
		CHANNELS 3 Zrotation Yrotation Xrotation
		JOINT RightLeg
		{
			OFFSET -3.829005 -38.256897 -0.885003
			CHANNELS 3 Zrotation Yrotation Xrotation
			JOINT RightFoot
			{
				OFFSET 1.577377 -39.841461 -4.231180
				CHANNELS 3 Zrotation Yrotation Xrotation
				JOINT RightToe
				{
					OFFSET -2.537174 -4.814398 12.334795
					CHANNELS 3 Zrotation Yrotation Xrotation
					End Site
					{
						OFFSET 0.000000 0.000000 0.000000
					}
				}
			}
		}
	}
	JOINT Spine
	{
		OFFSET -0.253288 10.896323 -2.669631
		CHANNELS 3 Zrotation Yrotation Xrotation
		JOINT Spine1
		{
			OFFSET 0.548704 13.518043 0.109247
			CHANNELS 3 Zrotation Yrotation Xrotation
			JOINT Spine2
			{
				OFFSET 0.145701 5.292222 2.542457
				CHANNELS 3 Zrotation Yrotation Xrotation
				JOINT Neck
				{
					OFFSET -0.277840 21.387037 -4.285703
					CHANNELS 3 Zrotation Yrotation Xrotation
					JOINT Head
					{
						OFFSET 0.515184 6.496960 5.134897
						CHANNELS 3 Zrotation Yrotation Xrotation
						End Site
						{
							OFFSET 0.000000 0.000000 0.000000
						}
					}
				}
				JOINT LeftShoulder
				{
					OFFSET 7.884473 12.174932 -3.408961
					CHANNELS 3 Zrotation Yrotation Xrotation
					JOINT LeftArm
					{
						OFFSET 9.097692 3.046888 -0.886815
						CHANNELS 3 Zrotation Yrotation Xrotation
						JOINT LeftForeArm
						{
							OFFSET 25.961220 -1.277207 -2.745643
							CHANNELS 3 Zrotation Yrotation Xrotation
							JOINT LeftHand
							{
								OFFSET 24.923361 0.898606 -0.117091
								CHANNELS 3 Zrotation Yrotation Xrotation
								End Site
								{
									OFFSET 0.000000 0.000000 0.000000
								}
							}
						}
					}
				}
				JOINT RightShoulder
				{
					OFFSET -8.175920 11.883285 -3.861528
					CHANNELS 3 Zrotation Yrotation Xrotation
					JOINT RightArm
					{
						OFFSET -9.601238 3.255117 -0.914307
						CHANNELS 3 Zrotation Yrotation Xrotation
						JOINT RightForeArm
						{
							OFFSET -25.374195 -1.332924 -2.140099
							CHANNELS 3 Zrotation Yrotation Xrotation
							JOINT RightHand
							{
								OFFSET -25.529810 0.777228 -0.555919
								CHANNELS 3 Zrotation Yrotation Xrotation
								End Site
								{
									OFFSET 0.000000 0.000000 0.000000
								}
							}
						}
					}
				}
			}
		}
	}
}
MOTION
Frames: 15
Frame Time: 0.033333
-271.865845 -239.559769 102.483437 -45.676066 3.048670 83.255953 3.011002 0.199252 13.030031 -0.150482 -4.588028 -4.904872 1.307944 9.452698 -4.993207 nan nan nan 2.355013 4.274166 10.214158 4.909945 -4.604662 -1.460769 8.302279 -0.926463 -1.454963 nan nan nan 1.143115 -0.847885 8.035411 1.858065 -1.700744 0.364493 1.428474 -1.182280 1.100148 0.535596 1.351384 2.526245 0.693094 -0.606425 2.496690 -23.671884 5.496047 3.875037 -66.125331 -6.004626 11.131000 11.652839 -31.802391 4.968921 -7.001058 -9.066391 -11.970863 22.996066 -1.671872 3.083378 64.433457 5.063352 11.223938 -13.061482 18.491879 -7.356696 7.812173 1.530748 -14.169323 
-271.847809 -239.565292 102.466743 -45.708695 3.072470 83.266668 2.985898 0.120124 13.039499 -0.139149 -4.494406 -4.945191 1.301741 9.507342 -5.027971 nan nan nan 2.546171 4.882387 10.354158 4.482270 -4.424461 -1.782372 8.214062 -0.480391 -1.637838 nan nan nan 1.133448 -0.903876 8.126221 1.931344 -1.669784 0.338890 1.456472 -1.203417 1.045828 0.494260 1.442496 2.675522 0.673479 -0.422290 2.203834 -23.619920 5.554642 3.766493 -66.390030 -5.833423 11.277012 11.951359 -31.942427 4.785809 -6.853299 -9.218430 -12.316455 22.936137 -1.841136 3.029860 64.546799 5.107764 11.201753 -13.431011 18.687103 -7.640821 7.726631 1.524443 -14.517225 
-271.858185 -239.592758 102.461479 -45.750614 3.121365 83.170909 3.044316 0.221122 13.199405 -0.128472 -4.511231 -5.018588 1.264809 9.468585 -5.016909 nan nan nan 2.604022 4.942298 10.468447 4.453073 -4.511389 -1.834749 8.185353 -0.200747 -1.688960 nan nan nan 1.184062 -0.891860 8.198802 1.912799 -1.642525 0.489365 1.443683 -1.153393 1.035755 0.389895 1.492770 3.069781 0.991393 -0.307959 1.397961 -23.448643 5.456908 3.680145 -66.591728 -5.770396 11.310669 12.009099 -31.995952 4.874267 -6.892482 -9.151704 -12.365416 22.765535 -1.766227 3.000629 64.732503 5.082159 11.077061 -13.368567 18.756272 -7.568735 7.806813 1.459697 -14.679422 
-271.880280 -239.598557 102.458397 -45.700824 3.165817 83.113660 3.113104 0.255060 13.259577 -0.126461 -4.537748 -5.016921 1.223087 9.403740 -5.003647 nan nan nan 2.691812 4.935241 10.554914 4.397511 -4.556804 -1.899416 8.099159 -0.105721 -1.792682 nan nan nan 1.148404 -0.888162 8.194044 1.930918 -1.681890 0.625810 1.482727 -1.129334 1.046256 0.369922 1.531465 3.275357 1.179817 -0.258063 0.961873 -23.320846 5.310229 3.702277 -66.741168 -5.793890 11.332613 12.081806 -31.942630 4.891306 -6.903087 -9.120995 -12.372601 22.610489 -1.609279 3.038600 64.925025 5.089618 11.006038 -13.374947 18.749045 -7.553732 7.875839 1.419263 -14.834059 
-271.884521 -239.596268 102.465042 -45.677720 3.173154 83.136931 3.124923 0.245512 13.222770 -0.128941 -4.539164 -4.997458 1.208201 9.396574 -4.991462 nan nan nan 2.706685 4.935426 10.535293 4.386640 -4.550837 -1.910908 8.038904 -0.126810 -1.786549 nan nan nan 1.144195 -0.894582 8.191205 1.934307 -1.686108 0.601630 1.482220 -1.134706 1.050649 0.371644 1.509286 3.249641 1.163273 -0.288913 1.008113 -23.327216 5.329352 3.699311 -66.720884 -5.793230 11.330186 12.067357 -31.899330 4.908469 -6.907691 -9.119119 -12.358371 22.623338 -1.615795 3.029332 64.921801 5.084288 11.020776 -13.375072 18.725490 -7.544908 7.870970 1.419923 -14.823219 
-271.705261 -239.525742 102.470604 -46.306444 3.480272 83.225242 3.295016 -0.069782 13.187216 -0.097205 -4.142056 -5.031412 0.900093 9.940910 -4.877022 nan nan nan 3.200975 6.995593 10.446550 4.652772 -5.708670 -2.086574 7.148283 -0.310492 -1.594584 nan nan nan 1.657059 -1.152272 8.358068 1.989106 -1.065714 0.772902 1.454607 -1.004973 0.809698 0.107408 1.312242 3.234371 0.668156 -0.621404 0.854529 -23.166646 5.407543 3.724941 -67.555839 -5.986884 12.009937 13.130043 -31.204037 4.458897 -7.905228 -10.017091 -13.020154 22.673875 -1.387509 3.172172 64.188448 7.129074 9.224489 -11.813693 11.240498 -9.325696 8.575764 -2.702993 -15.908281 
-271.656525 -239.482956 102.475990 -46.523183 3.526064 83.431651 3.282148 -0.133707 13.034014 -0.084919 -4.059863 -5.046515 0.984162 10.084724 -4.839652 nan nan nan 3.242935 7.511267 10.244017 4.503753 -5.238277 -1.834574 6.703257 -0.138254 -1.632401 nan nan nan 1.827268 -1.189145 8.221605 1.986555 -0.950921 0.650277 1.331804 -0.964841 0.895945 0.098722 1.233651 3.180974 0.551435 -0.751173 1.092176 -23.011618 5.475555 3.823633 -67.750158 -5.817956 12.171968 13.284429 -31.424051 4.835956 -7.978183 -10.257126 -13.374485 22.416853 -1.465518 3.278603 64.573824 7.180366 9.398105 -11.905892 11.491824 -8.936250 8.721001 -2.521167 -16.237434 
-271.630737 -239.450150 102.465057 -46.611331 3.529688 83.498109 3.274367 -0.160894 12.989420 -0.131728 -4.020625 -5.014773 1.072331 10.106258 -4.857167 nan nan nan 3.211220 7.719051 10.202978 4.457338 -5.089759 -1.747683 6.640200 -0.102031 -1.629285 nan nan nan 1.876974 -1.193018 8.191402 2.003802 -0.927313 0.638790 1.261475 -0.938537 0.936811 0.104064 1.213649 3.269365 0.587319 -0.740217 1.013785 -22.910221 5.459272 3.916292 -67.910573 -5.732343 12.277527 13.458330 -31.638356 5.008860 -8.016238 -10.386029 -13.675093 22.208294 -1.463032 3.351303 64.917627 7.163337 9.501730 -12.058144 11.678342 -8.748329 8.892350 -2.454208 -16.563404 
-271.605103 -239.405548 102.414276 -46.743111 3.516812 83.338757 3.262140 -0.206288 13.213104 -0.162688 -3.833811 -5.067402 1.086916 10.108476 -4.845730 nan nan nan 3.258227 8.332488 10.464839 4.568343 -5.752564 -1.906927 6.533126 0.026419 -1.611352 nan nan nan 2.104291 -1.616004 8.331798 1.985556 -1.178857 1.080936 0.808710 -0.535333 0.779878 0.063767 1.466425 3.212963 0.628013 -0.716512 0.579831 -22.541001 5.596890 3.631990 -68.116090 -5.470616 12.351938 13.652868 -31.873711 5.020784 -8.134077 -10.797039 -13.769303 22.004588 -1.198024 3.614216 65.614195 7.545745 9.493049 -12.425373 11.719889 -8.661008 8.946876 -2.602248 -16.759913 
-271.597107 -239.390549 102.396675 -46.812439 3.522996 83.323522 3.280437 -0.169200 13.247980 -0.161658 -3.831158 -5.070486 1.077250 10.086376 -4.824824 nan nan nan 3.234318 8.430254 10.491719 4.589972 -5.829213 -1.887961 6.550855 0.186770 -1.654458 nan nan nan 2.165173 -1.663843 8.317110 2.009810 -1.201675 1.221037 0.712600 -0.448493 0.757798 0.087848 1.529289 3.188408 0.631613 -0.702049 0.514350 -22.481029 5.572604 3.570558 -68.257403 -5.431472 12.395670 13.720073 -31.871022 4.973282 -8.077374 -10.813711 -13.834649 21.913953 -1.192590 3.672962 65.854171 7.566888 9.500460 -12.597421 11.893316 -8.623484 8.987588 -2.619309 -16.902160 
-271.600311 -239.364365 102.385612 -46.819293 3.522987 83.303663 3.299057 -0.121349 13.261779 -0.172110 -3.832954 -5.038728 1.113942 10.075116 -4.845869 nan nan nan 3.224894 8.415618 10.500320 4.602059 -5.880878 -1.851629 6.520226 0.236020 -1.681074 nan nan nan 2.186471 -1.688892 8.397757 2.000329 -1.190515 1.181902 0.679260 -0.421905 0.760664 0.118629 1.564561 3.166616 0.611768 -0.669382 0.585828 -22.478712 5.585064 3.533112 -68.311668 -5.417621 12.418150 13.774163 -31.840436 4.984971 -8.066554 -10.838956 -13.870099 21.820404 -1.196569 3.682905 66.052133 7.547239 9.527549 -12.676103 11.926780 -8.626860 8.979100 -2.588921 -17.036947 
-271.603516 -239.337723 102.371750 -46.745002 3.518294 83.259602 3.319088 -0.119095 13.294727 -0.193864 -3.819981 -5.027355 1.108822 10.031744 -4.789454 nan nan nan 3.207239 8.332143 10.589915 4.593099 -5.882889 -1.894044 6.555869 0.284642 -1.662886 nan nan nan 2.175870 -1.696358 8.472900 2.007501 -1.232832 1.189689 0.676336 -0.420433 0.765768 0.147254 1.547666 3.145720 0.623024 -0.707321 0.617167 -22.488275 5.577628 3.491256 -68.369669 -5.438646 12.434042 13.816905 -31.813036 5.031985 -8.103134 -10.851669 -13.849678 21.749927 -1.196873 3.675295 66.213075 7.539721 9.534685 -12.784702 11.947637 -8.599043 9.025241 -2.615903 -17.066369 
-271.607513 -239.327637 102.367188 -46.734598 3.512786 83.270136 3.312533 -0.115658 13.284159 -0.191992 -3.812366 -5.026508 1.105602 10.024006 -4.779210 nan nan nan 3.203986 8.294444 10.588236 4.586923 -5.871673 -1.910982 6.551050 0.293127 -1.626870 nan nan nan 2.164384 -1.691617 8.470135 2.010126 -1.241447 1.195397 0.676146 -0.418561 0.774107 0.162797 1.546052 3.132749 0.625846 -0.708177 0.616597 -22.502097 5.583711 3.481327 -68.370134 -5.441841 12.437812 13.822719 -31.823739 5.043588 -8.106620 -10.839308 -13.804603 21.741139 -1.205558 3.676042 66.255142 7.534690 9.539789 -12.826943 11.969654 -8.601698 9.020573 -2.624774 -17.054895 
-271.631836 -239.310806 102.364861 -46.699638 3.541843 83.256898 3.359810 -0.087037 13.342217 -0.158166 -3.854528 -5.073785 1.045211 9.991299 -4.746103 nan nan nan 3.248376 8.309110 10.648741 4.601438 -5.881907 -1.986557 6.581715 0.273128 -1.504384 nan nan nan 2.142198 -1.709995 8.482163 2.037570 -1.250347 1.198535 0.689458 -0.424861 0.813282 0.246131 1.560823 3.072483 0.590480 -0.681466 0.663249 -22.529970 5.640504 3.441890 -68.375812 -5.427219 12.467139 13.796173 -31.900081 5.107295 -8.086773 -10.862297 -13.678857 21.714313 -1.236680 3.671496 66.324947 7.524540 9.565478 -12.853050 12.030152 -8.614874 8.976479 -2.611539 -17.046037 
-271.619110 -239.297256 102.358047 -46.748174 3.527974 83.278971 3.351778 -0.082924 13.311486 -0.178751 -3.853081 -5.056230 1.094364 10.008951 -4.741899 nan nan nan 3.222211 8.322355 10.593410 4.610439 -5.942683 -1.928327 6.495462 0.333169 -1.601813 nan nan nan 2.165320 -1.692992 8.521624 2.019177 -1.237820 1.131049 0.660140 -0.442342 0.800449 0.212653 1.555411 3.135282 0.606755 -0.677707 0.642947 -22.477562 5.633671 3.450015 -68.422889 -5.408711 12.496527 13.770604 -31.834725 5.146770 -8.097553 -10.962386 -13.722147 21.671658 -1.211452 3.716124 66.409951 7.494261 9.574969 -12.868639 12.086121 -8.559958 8.980547 -2.594173 -17.159790 
